<svg width="189" height="103" viewBox="0 0 189 103" fill="none" xmlns="http://www.w3.org/2000/svg">
<path d="M104.68 77V72.96L104.16 71.96V64.52C104.16 63.32 103.787 62.4 103.04 61.76C102.32 61.0933 101.16 60.76 99.56 60.76C98.52 60.76 97.4667 60.9333 96.4 61.28C95.3333 61.6 94.4267 62.0533 93.68 62.64L91.12 57.48C92.3467 56.68 93.8133 56.0667 95.52 55.64C97.2533 55.1867 98.9733 54.96 100.68 54.96C104.2 54.96 106.92 55.7733 108.84 57.4C110.787 59 111.76 61.52 111.76 64.96V77H104.68ZM98.28 77.36C96.5467 77.36 95.08 77.0667 93.88 76.48C92.68 75.8933 91.76 75.0933 91.12 74.08C90.5067 73.0667 90.2 71.9333 90.2 70.68C90.2 69.3467 90.5333 68.2 91.2 67.24C91.8933 66.2533 92.9467 65.5067 94.36 65C95.7733 64.4667 97.6 64.2 99.84 64.2H104.96V68.16H100.88C99.6533 68.16 98.7867 68.36 98.28 68.76C97.8 69.16 97.56 69.6933 97.56 70.36C97.56 71.0267 97.8133 71.56 98.32 71.96C98.8267 72.36 99.52 72.56 100.4 72.56C101.227 72.56 101.973 72.36 102.64 71.96C103.333 71.5333 103.84 70.8933 104.16 70.04L105.2 72.84C104.8 74.3333 104.013 75.4667 102.84 76.24C101.693 76.9867 100.173 77.36 98.28 77.36ZM116.557 77V55.32H124.157V77H116.557ZM120.357 52.92C118.971 52.92 117.851 52.5333 116.997 51.76C116.144 50.9867 115.717 50.0267 115.717 48.88C115.717 47.7333 116.144 46.7733 116.997 46C117.851 45.2267 118.971 44.84 120.357 44.84C121.744 44.84 122.864 45.2133 123.717 45.96C124.571 46.68 124.997 47.6133 124.997 48.76C124.997 49.96 124.571 50.96 123.717 51.76C122.891 52.5333 121.771 52.92 120.357 52.92ZM135.136 77L126.216 55.32H134.016L141.136 73.44H137.216L144.696 55.32H151.936L142.976 77H135.136ZM166.399 77V72.96L165.879 71.96V64.52C165.879 63.32 165.505 62.4 164.759 61.76C164.039 61.0933 162.879 60.76 161.279 60.76C160.239 60.76 159.185 60.9333 158.119 61.28C157.052 61.6 156.145 62.0533 155.399 62.64L152.839 57.48C154.065 56.68 155.532 56.0667 157.239 55.64C158.972 55.1867 160.692 54.96 162.399 54.96C165.919 54.96 168.639 55.7733 170.559 57.4C172.505 59 173.479 61.52 173.479 64.96V77H166.399ZM159.999 77.36C158.265 77.36 156.799 77.0667 155.599 76.48C154.399 75.8933 153.479 75.0933 152.839 74.08C152.225 73.0667 151.919 71.9333 151.919 70.68C151.919 69.3467 152.252 68.2 152.919 67.24C153.612 66.2533 154.665 65.5067 156.079 65C157.492 64.4667 159.319 64.2 161.559 64.2H166.679V68.16H162.599C161.372 68.16 160.505 68.36 159.999 68.76C159.519 69.16 159.279 69.6933 159.279 70.36C159.279 71.0267 159.532 71.56 160.039 71.96C160.545 72.36 161.239 72.56 162.119 72.56C162.945 72.56 163.692 72.36 164.359 71.96C165.052 71.5333 165.559 70.8933 165.879 70.04L166.919 72.84C166.519 74.3333 165.732 75.4667 164.559 76.24C163.412 76.9867 161.892 77.36 159.999 77.36Z" fill="#95CCD9"/>
<path fill-rule="evenodd" clip-rule="evenodd" d="M7.69394 98.8301L39.1449 38.775L43.725 39.8637V76.6047C43.725 77.9194 42.6397 78.9853 41.3008 78.9853C39.9619 78.9853 38.8765 77.9194 38.8765 76.6047V49.6983L12.0057 101.008C11.3934 102.177 9.93179 102.637 8.74112 102.036C7.55046 101.435 7.08162 99.9994 7.69394 98.8301Z" fill="#95CCD9"/>
<path fill-rule="evenodd" clip-rule="evenodd" d="M29.7 76.725C29.7 75.3581 30.7385 74.25 32.0195 74.25H60.3804C61.6614 74.25 62.7 75.3581 62.7 76.725C62.7 78.0919 61.6614 79.2 60.3804 79.2H32.0195C30.7385 79.2 29.7 78.0919 29.7 76.725Z" fill="#95CCD9"/>
<path fill-rule="evenodd" clip-rule="evenodd" d="M33 35.255C17.3869 35.255 4.73005 47.9119 4.73005 63.525C4.73005 79.1381 17.3869 91.7949 33 91.7949C35.5979 91.7949 38.1103 91.4451 40.4945 90.7914C41.7542 90.446 43.0554 91.1872 43.4008 92.4469C43.7462 93.7066 43.005 95.0077 41.7453 95.3531C38.9574 96.1175 36.0244 96.525 33 96.525C14.7746 96.525 0 81.7504 0 63.525C0 45.2996 14.7746 30.525 33 30.525C51.2254 30.525 66 45.2996 66 63.525C66 69.5985 64.6511 73.1103 63.689 75.615C63.4555 76.2228 63.2448 76.7714 63.0817 77.2828C62.6848 78.5272 61.3543 79.2143 60.1099 78.8174C58.8654 78.4205 58.1784 77.09 58.5753 75.8456C58.8048 75.126 59.0644 74.4442 59.3295 73.7477C60.2649 71.291 61.27 68.6513 61.27 63.525C61.27 47.9119 48.6131 35.255 33 35.255Z" fill="#95CCD9"/>
<path d="M58.5751 2.47501L46.6616 25.575C46.6616 25.575 41.0197 17.3786 45.3764 10.2829C49.7332 3.18717 58.5751 2.47501 58.5751 2.47501Z" fill="#95CCD9"/>
<path fill-rule="evenodd" clip-rule="evenodd" d="M62.7 0L46.8817 30.525L44.637 27.2795L46.5895 25.9207C44.637 27.2795 44.6365 27.2787 44.636 27.2779L44.6347 27.2762L44.6319 27.2721C44.6299 27.2691 44.6275 27.2656 44.6247 27.2616C44.6193 27.2536 44.6124 27.2435 44.6043 27.2315C44.5881 27.2073 44.5667 27.1752 44.5405 27.1354C44.4883 27.0556 44.4173 26.9448 44.3314 26.8052C44.1597 26.5263 43.9276 26.1305 43.6674 25.6365C43.1496 24.6534 42.5067 23.2543 42.0143 21.5928C41.0391 18.3018 40.5764 13.6759 43.2718 9.30685C45.8386 5.1463 49.6853 2.92108 52.7505 1.74183C54.2941 1.14798 55.6828 0.801916 56.6917 0.603074C57.1977 0.503338 57.6127 0.439759 57.9095 0.400425C58.058 0.380741 58.1773 0.367077 58.264 0.357969C58.3073 0.353414 58.3426 0.349994 58.3693 0.347528C58.3827 0.346295 58.3939 0.3453 58.4029 0.34452C58.4056 0.344292 58.408 0.344083 58.4103 0.343891L58.4149 0.343509L58.4196 0.34312L58.4216 0.342953C58.4226 0.342877 58.4235 0.342804 58.6128 2.71897L58.4235 0.342804L62.7 0ZM54.0515 6.35277C51.6601 7.33739 49.0459 9.00708 47.3132 11.8157C45.6117 14.5736 45.7975 17.6274 46.57 20.2344C46.6049 20.352 46.6408 20.4681 46.6775 20.5826L54.0515 6.35277Z" fill="#95CCD9"/>
</svg>
